<svg id="Group_90456" data-name="Group 90456" xmlns="http://www.w3.org/2000/svg" xmlns:xlink="http://www.w3.org/1999/xlink" width="448.716" height="420.229" viewBox="0 0 448.716 420.229">
  <defs>
    <linearGradient id="linear-gradient" x1="0.186" x2="0.776" y2="0.939" gradientUnits="objectBoundingBox">
      <stop offset="0" stop-color="#de357a"/>
      <stop offset="0.164" stop-color="#df3a7d"/>
      <stop offset="0.366" stop-color="#e24988"/>
      <stop offset="0.59" stop-color="#e8629b"/>
      <stop offset="0.826" stop-color="#f085b4"/>
      <stop offset="1" stop-color="#f7a4cb"/>
    </linearGradient>
    <clipPath id="clip-path">
      <rect id="Rectangle_78543" data-name="Rectangle 78543" width="448.716" height="420.229" fill="url(#linear-gradient)"/>
    </clipPath>
    <linearGradient id="linear-gradient-3" x1="0.68" y1="0.829" x2="0.097" y2="0.248" xlink:href="#linear-gradient"/>
    <linearGradient id="linear-gradient-4" x1="0.201" y1="0.74" x2="0.924" y2="0.329" gradientUnits="objectBoundingBox">
      <stop offset="0" stop-color="#de357a"/>
      <stop offset="1" stop-color="#f7a4cb"/>
    </linearGradient>
  </defs>
  <g id="Group_90455" data-name="Group 90455" clip-path="url(#clip-path)">
    <path id="Path_78118" data-name="Path 78118" d="M252.224,236.843c10.086-11.449,32.452-55.738,33.818-70.259.451-4.79-.242-9.67.071-14.45,1.285-19.643,3.094-39.267,5.671-58.773-12.167-20.23-11.1-49.12-40.738-48.069-30.9,1.1-41.89,4.419-69.755-12.579C160.916,20.283,143.232-3.081,116.48.338c-7.128.911-8.227,3.559-11.542,9.438-13.416,23.79-9.163,60.063-13.675,86.359-2.022,11.786-7.1,22.653-13.354,32.7,1.248,10.37,4.142,27.862,10.319,36.417,3.348,4.635,19.695,13.21,25.464,16.5,17.864,10.179,37.136,17.9,54.55,28.565,21.556,13.209,42.624,36.445,69.869,34.2,7.212-.594,9.558-2.5,14.113-7.674m-45.981-15.315c-.77-.321-1.849-.082-1.609-1.188,10.3-.7,17.742-6.658,24.184-14.15,4.88-5.675,8.028-12.721,12.928-18.124l15.313,37.071c-16.93,5.848-34.6,3.143-50.816-3.609m34.306-38.308c-12.92-15.243-25.57-31.111-34.3-49.187l54.875-37.117Zm22.99-85.5,14.351,53.54L243.379,181.61Zm-58.9,39.527,33.89,48.385c-18.246,7.19-36.406,9.673-55.689,4.843,12.8-15.032,17.8-34.271,21.8-53.227m-23.905,51.589c-13.363-9.051-22.353-23.194-31.321-36.336l-10.956-19.291c8.813,3.563,17.745,7.989,27.252,9.458,13.281,2.051,25.14-1.03,37.3-6.226-4.763,18.353-8.568,38.322-22.279,52.4M206.251,131.6l12.916-65.34c15.106,6.865,30.134,15.228,41.945,27.023Zm-2.022-.811c-19.266-24.611-34.926-51.946-50.447-79.041,19.9,9.427,40.228,18.424,62.95,14.516ZM203.016,134c-22.542,11.768-44.37,7.594-65.833-3.984l13.381-78.275Zm-67.06-10.135c-.277.918-.3,3-1.535,2.884L108.031,61.8c11.011-9.823,26.487-12.94,40.906-12.474-5.739,24.3-5.768,50.633-12.981,74.545m-3.166,4.5c-11.76-4.724-24.26-9.249-37.119-8.881,11.207-14.84,11.316-33.792,12.114-51.614Zm1.625,2.438c-1.55,12.65-3.482,24.9-7.863,36.917-.376,1.031.351,2.148-1.412,1.78-12.06-14.583-23.375-30.285-29.465-48.39,13.514.216,26.086,5.653,38.74,9.693m1.622,4.022,22.254,34.612,16.476,18.614c-16.48-2.622-30.9-11.638-46.78-16.173Zm43.42,56.613,11.861,22.429-54.484-36.287c14.179,4.691,27.6,11.916,42.623,13.859m2.58,1.052c5.993.675,12.084,2.551,18.162,2.821,12.622.561,25.775-2.966,37.518-7.248-7.346,15.169-21.508,34.377-40.81,29.091Zm60.749-6.46L277.261,155.8,259.5,221.94Zm22.367,27.029L279.681,155.8l3.493,15.967Zm18.566-50.818-3.244-11.656,3.507-22.369,2.966-12.753Zm-4.048-18.154c-.162,1.087-.361,2.53-1.585,1.219L264.353,94.5c8.438-1.546,16.629-2.2,25.026,0-4.7,16.26-7.212,32.862-9.71,49.59m-8.2-84.543c7.233,9.719,11.789,21.68,17.1,32.512-8.011-1.61-16.075-.5-24.127-.084-1.646-14.485-1.727-29.279-5.732-43.464,5.589,1.606,9.424,6.552,12.76,11.035M255.055,47.7c3.835.813,7.183,37.362,6.871,42.759A157.393,157.393,0,0,0,243.307,76.4c-7.027-4.441-15.129-7.682-21.728-12.558Zm-6.847.821L218.877,62.864c-8.812-5.8-17.655-12.121-24.74-19.993,17.439,7.545,35.37,9.081,54.071,5.647M184.674,37.331c9.4,9.732,19.868,18.108,30.446,26.5-21.636,4.672-43.515-5.565-62.129-15.72C161.7,40.4,173.32,38.017,184.674,37.331m-31.7-22.708L128.766,3.345c8.442,1.371,18,5.417,24.209,11.277M150.8,16.4l29.614,19.2c-10.541.821-20.35,4.028-28.838,10.377l-1.314.07c-11.245-14.69-21.88-29.786-35.223-42.7,12.944.7,24.75,6.759,35.761,13.053M111.823,4.953c1.391-.358,1.61.579,2.417,1.2,8.766,6.756,26.3,29,32.272,38.732.393.64,1.182.731.809,2.006-14.02.832-28.443,2.757-39.536,12.1-.95-18.042-1.418-36.647,4.038-54.045M95.683,61.836a216.7,216.7,0,0,1,7.666-43.969l4.42-8.073c-3.013,16.787-2.39,33.732-2.494,50.737l-9.2,4.108c-.795-.284-.443-2.029-.387-2.8m9.669,1.2c.259,13.9.15,28.035-4.226,41.346l-4.64,9.467a189.851,189.851,0,0,0-1.51-45.425c.509-2.079,9.425-6.388,10.375-5.389M85.889,119.8a113.555,113.555,0,0,0,4.532-11.6l4.434-23.386c-.225,11.51.983,23.2-1.827,34.461l-9.066,5.056c-1.5.481,1.68-3.987,1.927-4.528m1.72,40.021c-1.86-7.878-8.837-21.395-7.254-29.422.508-2.578,11.37-8.253,12.087-7.672-3.474,11.382-3.584,22.6-4.035,34.284-.038.977.607,3-.8,2.811m6.851-35.5A146.228,146.228,0,0,0,122.3,169.112l-19.77-5.247H90.021a130.417,130.417,0,0,1,4.44-39.535m39.561,66.146c-9.656-4.05-28.479-15.372-37.474-21.438-1.449-.977-3.382-1.854-4.1-3.552a71.69,71.69,0,0,1,16.15,2c2.577.583,15.389,4.352,16.726,5.464,1.94,1.615,6.329,14.713,9.9,17.135.128.6-.829.543-1.194.39m1.669-3.286c-.877-1.311-6.633-10.652-6.113-11.225l48.418,32.258c-8.921-3.429-17.555-7.519-26.434-11.081-9.011-3.614-9.97-1.137-15.871-9.952M202.2,230.813l-36.315-24.995,29.027,13.33c1.346,1.075,8.084,10.831,7.288,11.664m-1.606-8.865c16.557,6.4,32.994,10.583,50.844,7.264-11.819,11.261-29.947,11.3-44.363,5.208Zm43.155,19.335c-5.491,2.041-14.7.583-20.556.013l14.53-2,13.711-6.052c1.062,1.028-6.093,7.449-7.685,8.041" transform="translate(-14.985 0)" fill="url(#linear-gradient)"/>
    <path id="Path_78119" data-name="Path 78119" d="M495.73,295.543,453.663,249.66l-45.412-11.466c-6.476.046-49.122,10.682-54.576,13.873-15.318,8.961-31.34,28-46.865,37.859a234.6,234.6,0,0,0-16.492,36.6c2.017,22.736,2.047,45.814,5.974,68.32l44.488,48.3c17.455,2.286,46.342,18.878,60.09,2.092,6.522-7.964,11-19.247,18.533-28.263,19.58-23.439,33.906-20.05,59.979-27.98,11.345-3.45,20.551-14.321,25.173-24.924Zm5.6,61.751-22.573-39.144c.056-2.412,14.544-13.721,15.327-18.119Zm-22.976-42.731c-.678.465-.847,1.1-2.021.783l-22.61-44.358,39.483,26.3c.421,1.757-12.586,15.725-14.852,17.279M357.271,416.986c-14.441-20.576-30-41.382-38.343-65.329,13.911-5.012,27.742-4.306,41.977-.8-4.728,21.727-.716,44.207-3.634,66.134m-41.566-66.946c-7.531.471-14.8-2.032-21.789-4.434l24.2-40.743a152.959,152.959,0,0,0-2.409,45.177m8.077-54.861,12.095,2.434c-5.327,5.172-8.759,10.957-11.687,17.752l-6.867,27.408c-.807-16.454.633-32.143,6.459-47.594m82.835.691c-3.634-1.894-26.058-30.219-23.923-32.143,21.607-.292,43.129,1.835,64.563,4.038,2.146,2.114-36.927,27.686-40.64,28.105m43.861-27.306c5.246,16.766,15.021,31.538,23.414,46.777l-64.561-18.534c14.778-7.637,29.1-16.712,41.147-28.243m-47.611,27.418c-19.7-3.357-39.937-7.74-59.725-2.42,5.627-5.835,12.15-10.806,18.651-15.634,3.538-2.627,13.8-10.74,16.881-12.171a3.167,3.167,0,0,1,2.364-.389c4.514,11.91,14.175,20.756,21.829,30.614M340.147,313.1c-.926-3.155-3.038-13.307-.519-15.571,1.246-1.119,10.042-3.389,12.193-3.757,16.863-2.886,33.571,2.013,50.241,3.838-5.12,4.477-11.677,6.725-17.2,10.629-13.121,9.27-21.259,22.428-23.16,38.57-7.984-9.54-18-21.608-21.552-33.709m19.138,35.315c-13.581-3.136-26.983-3.513-40.35.81,2.4-16.812,4.857-35.837,17.353-48.392-.086,18.812,12.718,33.21,23,47.582m-10.068-63.7-10.924,10.915-12.1-2.47c14.173-10.223,29.01-20.442,46-25.4ZM317.324,357.3l36.308,59.689L311.66,399.221c3.663-13.575,5.248-27.914,5.663-41.923m45.2-4.835,42.765,51.612c-14.845,6.41-29.819,12.975-46,15.333,1.952-22.253-.753-44.828,3.233-66.945m2.416-1.614c27.618,1.724,54.484,8.4,81.513,13.717-2.6,2.9-7.021,4.037-10.428,6.107A79.686,79.686,0,0,0,406.5,401.648Zm-1.619-1.622c2.107-25.4,20.748-40.8,42.764-50.01,9.608,23.673,26.831,42.945,41.175,63.721-27.635-6-55.526-12.961-83.939-13.71m45.207-50.009L474.7,317.775a3.828,3.828,0,0,1-.441,2.38c-2.9,7.358-10.624,20.565-14.758,28-2.819,5.073-5.879,10.482-9.814,14.782-13.592-21.175-31.58-40.021-41.164-63.724m45.2-45.977,30.657,34.679-31.873-20.972c-1.616-2.651,1.766-10.287,1.216-13.707m-2.509-2.345c.291,2.14.351,14.044-2.664,13.576l-31.957-21.712Zm-42.194-9.7,36.618,23.346-60.523-2.83c8.8-5.907,17.4-12.006,23.905-20.515M368.8,249.433c11.965-3.379,24.245-6.1,36.49-8.292.966.884-6.7,7.992-7.688,8.845-1.834,1.583-15.851,11.7-16.922,11.8l-21.389-8.564c-.913-1.221,8.47-3.5,9.509-3.794M355.255,254.4l2.421-.022c6.06,3.587,13.987,5.088,19.365,9.337-11.383,2.92-22.705,8.439-32.826,14.389-1.638.963-12.533,8.787-13.178,8.2Zm-8.892,6.9-22.936,30.711c-4.1,2.475-9.853-.866-14.179-.872Zm-39.128,32.263,1.535-.778,12.58,2.4-26.626,44.354a231.771,231.771,0,0,1,12.511-45.979M292.348,327.1l4.781-10.936L293.9,334.707c-2.293-1.182-1.578-5.451-1.553-7.61m24.16,25.368-6.446,43.547L293.91,348.432c7.493,1.532,14.838,3.995,22.6,4.033m-21.783,6.45,13.7,38.715L297.1,392.255Zm7.255,38.724c3.055.143,6.22,2.042,8.505,3.995l14.892,21.81Zm40.375,42.373-2.006-.465-25.455-36.262,40.823,17.725c1.59,2.476-10.693,16.834-13.362,19m49.1,7.111c-15.653,3.782-32.227-2.555-47.5-5.524,5.409-5.44,11.11-11.57,13.753-18.93a2.874,2.874,0,0,1,1.151-.045c1.915.276,18.59,12.5,22.485,14.672a96.572,96.572,0,0,0,15.871,7.132c-.817,1.611-4.136,2.3-5.762,2.7m8.184-4.317c-14.045-4.049-26.126-13.046-37.925-21.382,15.144-3.122,29.515-8.629,43.576-14.916Zm11.928-21.562-8.686,14.3,5.01-30.474,27.266-5.814c-9.122,6.281-17.483,12.535-23.59,21.992m-2.232-18.777c5.775-13.54,18.117-24.681,30.93-31.6,1.626-.876,8-4.809,9.041-3.112,1.922,3.126-1.779,24.574-4.874,27.444Zm58.917-13.718,23.4-10.471c-5.424,7.132-14.755,9.885-23.4,10.471m-18.987,4.836c-1.182.185-1.447.083-1.149-1.144.718-2.972,3.183-8.38,3.183-11.347v-15.73c16.137,1.879,33.075,4.163,49.232.814-11.533,16.6-34.33,18.68-51.266,27.407m45.92-28.322c-14.057,1.72-28.233-.336-42.269-1.518l23.8-43.552,24.621,43.132c-.222,1.144-5,1.8-6.154,1.937" transform="translate(-55.839 -45.814)" fill="url(#linear-gradient-3)"/>
    <path id="Path_78120" data-name="Path 78120" d="M172.474,293.682c-7.853-4.818-17.8-8.725-26.149-13.393-9.143-5.109-24.029-16.3-33.314-18.331-9.607-2.1-20.306-.968-30.125-.986C62.944,272.507,41.809,282.965,23.5,296.8L.038,356.458c-.631,5.26,6.79,37.172,9.039,43.258,5.7,15.412,22.658,12.747,35.59,14.443,21.7,2.847,35.017,9.3,49.762,25.285,7.98,8.652,13.191,20.5,24.159,25.866,7.106,3.478,15.817,4.478,23.628,5.056l57.82-38.264,23.075-58.256c-3.583-13.107-4.39-31.757-9.273-44.068-2.856-7.2-33.583-31.325-41.364-36.1m-25.467,18.193-11.437-17.2c1.783-1.437,36.1,18.279,40.339,21.429-6.575,10.446-12.6,21.494-16.135,33.411Zm9.539,36.841c-11.868-7.9-23.469-16.686-38.342-17.733-7.746-.546-14.174,1.253-21.574,2.617-.623.115-2.092,1.413-1.4-.6,1.489-4.352,7.207-14.17,9.831-18.411,5.924-9.579,13.215-18.753,24.479-22.067,16.479,13.879,21.979,36.119,27.01,56.192M141.763,294.53c-2.566-1.178-8.979-2.777-10.56-3.966-1.887-1.419-2.682-6.958-5.318-8.793a214.436,214.436,0,0,1,24.951,14.177c4.122,2.7,8.757,5.646,12.175,9.2-7.278-3.1-14.053-7.315-21.248-10.618m-14.269-5.51c-15.77-5.188-31.359-.569-46.8,3.222l17.553-8.66c4.545-2.009,20.7-5.335,24.425-3.042.415.256,5.314,8,4.824,8.48m-1.61,1.625c-6.125,4.3-12.5,7.891-16.933,14.124L92.8,332.578c-2.28-8.762-5.036-18.228-10.172-25.735-2.236-3.269-5.76-5.862-7.6-8.534-.471-.682-1.127-.8-.793-2.022,17.062-4.128,33.92-10.7,51.65-5.642m-35.033,44.4-60.2,25.767,18.223-32.194L71.4,297.911c10.846,9.261,17.475,23.253,19.446,37.135m-43.59-8.04L28.233,359.2,26.69,312.494l40.275-12.976A323.083,323.083,0,0,0,47.26,327.005M29.838,363.244l60.526-25.821-26.638,60.5c-1.242.344-1.343-.35-2.01-.8a109.863,109.863,0,0,1-9.29-7.656c-2.582-2.307-24.646-23.958-22.589-26.22m63.754-24.209c9.16,25.833,17.131,52.138,22.6,79.054-14.786-11.378-30.934-19.111-50.028-19.364Zm13.135,32.458a327.791,327.791,0,0,0-12.2-34.5c22.5-9.958,45.964.379,62.686,16.15-15.631,19.65-27.287,42.212-37.793,64.939-1.156.195-1.1-1.4-1.363-2.243-4.47-14.074-7.023-29.907-11.328-44.347m51.85-16.32,12.5,68.558c-11.353-1.61-22.886-.175-34.291-.809-2.165-.12-16.459-1.43-16.534-2.81,11.761-22.2,22.227-45.437,38.322-64.939m2.021,0c14.031,9.1,28.012,18.2,43.56,24.6a231.871,231.871,0,0,0-30.665,41.537Zm.032-2.485c4.16-12.482,10.243-24.147,16.921-35.423l6.584,9.939c8.2,15.9,14.279,32.827,20.032,49.748-15.905-5.45-29.248-15.81-43.536-24.264m21.753-33c9.5,4.105,18.395,9.6,29.034,10.5-2.132,13.162-2.7,26.764-4.816,39.909-.193,1.2-.043,2.489-1.61,2.816-6.123-18.28-12.785-36.577-22.608-53.23m14.909-4.021c.788,1.684,13.23,10.605,11.72,12.075-10.706-1.98-20.224-7.483-29.5-12.856l-6-16.983ZM175.526,311.6,137.991,285l32.1,9.858c1.094,5.734,5.1,10.972,5.432,16.749M143.1,281.1l11.029,5.517c.184,1.5-1.644.635-2.456.439-8.914-2.142-18.262-6.817-27.361-8.959l-4.882-10.843ZM82.267,263.58c1.887.23,5.661-1.176,6.894-1.176h13.317l-25.411,4.852Zm17.49,1.347,17.172-.023,4.113,12.012c-15.749-4.327-32.156-5.039-48.422-5.647Zm14.017,12c.191,1.138-1.43,1.174-2.24,1.371-2.611.637-5.544.694-8.255,1.438C92,282.832,81.8,288.769,71.819,294.669c-2.186-7.1-4.89-14.193-4.857-21.782ZM66.864,286.3c.883,3.45,2.536,6.521,3.332,9.974L29.839,309.182l34.3-34.662c1.032-.011,2.218,9.806,2.723,11.782m-40.31,10.329,26.69-15.666L26.619,308.382c-.43-3.063-1.961-9.116-.065-11.751m-2.374,5.3c-.279,3.332.606,7.319-.357,10.521-.892,2.967-8.419,15.818-10.513,19.34-.523.88-.814,2.215-2.026,2.4ZM24.2,315.65l2.414,46.784a61.546,61.546,0,0,1-24.239-5.274ZM2.4,360.015c7.94,2.154,15.813,4.834,24.207,4.033L22.583,394.3l.4,14.911C8.695,397.2,7.015,377.023,2.4,360.015m25.834,7.257C35.35,375.3,42.49,383.395,50.4,390.685c2.178,2.008,7.99,5.7,9.316,7.631.581.847,1.242.636,0,1.639l-33.955,9.729c-2.824-2.07.845-36.828,2.472-42.411M79.871,422.93c-6.486-3.6-12.886-7.42-20.162-9.285l-26.638-3.613,30.11-8.778c.918.233,10.8,12.6,12.189,14.485.676.913,4.954,6.716,4.5,7.191m8.637,7.111L66.97,401.154c14.467-.195,27.977,5.029,39.8,13.051,1.354.918,9.762,6.383,8.622,7.906-8.617,3.6-17.1,8.6-26.881,7.93m18.013,20.316,19.362,15.318c-7.889-2.451-15.923-7.521-19.362-15.318M91.179,431.812c9.458.179,18.181-4.373,26.237-8.863l11.81,28.5,9.564,16.65c-19.969-5.566-32.829-23.018-47.611-36.292m50.443,35.469c-10.416-12.931-15.558-29.018-21.384-44.347l50.036,2.424Zm6.061-3.211L172.7,426.5l22.6,6.121Zm49.991-33.095c-8.074-1.111-15.878-3.818-23.384-6.859,8.808-14.722,18.687-29.3,30.682-41.519Zm4.085-10.469,5.369-40.162.868-.981,11.508-3.215ZM221.1,372.861c-4.453,1.664-8.757,4.086-13.7,4.084l4.848-40.328c1.446.25,1.384,1.632,1.724,2.706,3.3,10.413,4.051,22.911,7.126,33.539" transform="translate(0 -50.139)" fill="url(#linear-gradient-4)"/>
  </g>
</svg>
