<svg id="For_Business" data-name="For Business" xmlns="http://www.w3.org/2000/svg" width="144" height="80" viewBox="0 0 144 80">
  <rect id="Rectangle_15304" data-name="Rectangle 15304" width="144" height="80" fill="none"/>
  <g id="Group_90439" data-name="Group 90439" transform="translate(11 31)">
    <g id="icons_Q2" data-name="icons Q2" transform="translate(95.999 6)">
      <path id="Path_63196" data-name="Path 63196" d="M16,20.16,11.458,16.2a.877.877,0,0,0-.664-.238.845.845,0,0,0-.622.313.711.711,0,0,0,.086,1.009L15.4,21.729a.9.9,0,0,0,1.2,0l5.143-4.447a.711.711,0,0,0,.086-1.009.845.845,0,0,0-.622-.313.877.877,0,0,0-.664.238Z" transform="translate(0 -15.959)" fill="#fff"/>
    </g>
    <text id="For_Business-2" data-name="For Business" transform="translate(96 14)" fill="#fff" font-size="14" font-family="Montserrat-Bold, Montserrat" font-weight="700"><tspan x="-93" y="0">For Business</tspan></text>
  </g>
  <rect id="Rectangle_78536" data-name="Rectangle 78536" width="40" height="2" rx="1" transform="translate(14 49)" fill="none"/>
</svg>
